<!-- icon666.com - MILLIONS OF FREE VECTOR ICONS --><svg viewBox="0 -17 313.244 313" xmlns="http://www.w3.org/2000/svg"><path d="m241.835938 48.75c-19.496094 0-35.355469-15.859375-35.355469-35.355469v-1.273437h-99.714844v1.273437c0 19.496094-15.863281 35.355469-35.355469 35.355469h-2.476562v-12h2.476562c12.878906 0 23.355469-10.476562 23.355469-23.355469v-13.273437h123.714844v13.273437c0 12.878907 10.476562 23.355469 23.355469 23.355469zm0 0"></path><path d="m255.25 36.152344h-197.257812c-31.976563 0-57.992188 26.015625-57.992188 57.992187v184.882813h313.242188v-184.882813c0-31.976562-26.015626-57.992187-57.992188-57.992187zm-91.699219 124.3125c0-4.136719 3.386719-7.523438 7.523438-7.523438s7.519531 3.386719 7.519531 7.523438v11.28125c0 4.136718-3.382812 7.519531-7.519531 7.519531s-7.523438-3.382813-7.523438-7.519531zm-28.816406 0c0-4.136719 3.382813-7.523438 7.523437-7.523438 4.136719 0 7.519532 3.386719 7.519532 7.523438v11.28125c0 4.136718-3.386719 7.519531-7.519532 7.519531-4.136718 0-7.523437-3.382813-7.523437-7.519531zm-44.816406-15.726563h-42.726563v-24.648437h42.726563zm19.917969 45.496094v-11.28125c0-4.136719 3.382812-7.523437 7.519531-7.523437s7.523437 3.386718 7.523437 7.523437v11.28125c0 4.136719-3.386718 7.519531-7.523437 7.519531s-7.519531-3.382812-7.519531-7.519531zm61.578124 49.988281h-29.148437c-11.003906 0-20.011719-8.433594-20.011719-18.734375 0-6.855469 3.984375-12.878906 9.894532-16.144531 4.363281-2.414062 8.183593-5.632812 10.988281-9.582031 2.847656-4.003907 7.710937-6.65625 13.203125-6.65625 5.332031 0 10.070312 2.5 12.945312 6.304687 2.96875 3.929688 6.796875 7.230469 11.355469 9.464844 6.394531 3.136719 10.789063 9.417969 10.789063 16.613281 0 10.304688-9.007813 18.734375-20.015626 18.734375zm31.996094-49.988281c0 4.136719-3.386718 7.519531-7.519531 7.519531-4.136719 0-7.523437-3.386718-7.523437-7.519531v-11.28125c0-4.136719 3.386718-7.523437 7.523437-7.523437 4.132813 0 7.519531 3.386718 7.519531 7.523437zm61.507813-45.496094h-42.726563v-24.648437h42.726563zm0 0" fill="#ffa08a"></path><path d="m313.023438 113.929688h-312.746094v12h40.914062v24.808593h54.726563v-24.808593h120.273437v24.808593h54.726563v-24.808593h42.105469zm-229.105469 24.808593h-30.726563v-12.808593h30.726563zm175 0h-30.726563v-12.808593h30.726563zm0 0"></path><path d="m178.558594 69.550781h-11.957032v-11.957031h-19.957031v11.957031h-11.957031v19.960938h11.957031v11.953125h19.957031v-11.953125h11.957032zm0 0"></path></svg>